<mxfile host="65bd71144e">
    <diagram id="c2vosbz_3kWrzgvhdEjq" name="Страница 1">
        <mxGraphModel dx="899" dy="513" grid="1" gridSize="10" guides="0" tooltips="1" connect="1" arrows="1" fold="1" page="1" pageScale="1" pageWidth="827" pageHeight="1169" background="#ffffff" math="0" shadow="0">
            <root>
                <mxCell id="0"/>
                <mxCell id="1" parent="0"/>
                <mxCell id="7" style="edgeStyle=none;html=1;exitX=1;exitY=0.17;exitDx=0;exitDy=0;exitPerimeter=0;entryX=-0.006;entryY=0.661;entryDx=0;entryDy=0;entryPerimeter=0;strokeColor=#001DBC;fillColor=#0050ef;" parent="1" source="3" target="4" edge="1">
                    <mxGeometry relative="1" as="geometry"/>
                </mxCell>
                <mxCell id="11" value="Text" style="edgeLabel;html=1;align=center;verticalAlign=middle;resizable=0;points=[];" parent="7" vertex="1" connectable="0">
                    <mxGeometry x="0.0923" y="-1" relative="1" as="geometry">
                        <mxPoint as="offset"/>
                    </mxGeometry>
                </mxCell>
                <mxCell id="3" value="Admin" style="sketch=0;aspect=fixed;html=1;points=[[0,0.17,0,0,0],[0,0.33,0,0,0],[0,0.5,0,0,0],[0,0.67,0,0,0],[0,0.83,0,0,0],[0.17,0,0,0,0],[0.17,1,0,0,0],[0.33,0,0,0,0],[0.33,1,0,0,0],[0.5,0,0,0,0],[0.5,1,0,0,0],[0.67,0,0,0,0],[0.67,1,0,0,0],[0.83,0,0,0,0],[0.83,1,0,0,0],[1,0.17,0,0,0],[1,0.33,0,0,0],[1,0.5,0,0,0],[1,0.67,0,0,0],[1,0.83,0,0,0]];align=center;image;fontSize=12;image=img/lib/mscae/Virtual_Machine_2.svg;" parent="1" vertex="1">
                    <mxGeometry x="100" y="190" width="60.87" height="56" as="geometry"/>
                </mxCell>
                <mxCell id="4" value="Yandex Cloud" style="sketch=0;aspect=fixed;html=1;points=[];align=center;image;fontSize=12;image=img/lib/mscae/Cloud_Services_Classic.svg;" parent="1" vertex="1">
                    <mxGeometry x="370" y="70" width="109.52" height="92" as="geometry"/>
                </mxCell>
                <mxCell id="5" value="" style="shape=image;verticalLabelPosition=bottom;verticalAlign=top;imageAspect=0;image=https://www.datocms-assets.com/2885/1506457071-blog-terraform-list.svg" parent="1" vertex="1">
                    <mxGeometry x="130" y="280" width="50" height="50" as="geometry"/>
                </mxCell>
                <mxCell id="6" value="" style="shape=image;verticalLabelPosition=bottom;labelBackgroundColor=default;verticalAlign=top;aspect=fixed;imageAspect=0;image=data:image/svg+xml,PHN2ZyB4bWxucz0iaHR0cDovL3d3dy53My5vcmcvMjAwMC9zdmciIHdpZHRoPSI1MTIiIGhlaWdodD0iNTEyIiB2aWV3Qm94PSIwIDAgNTEyIDUxMiI+PHBhdGggZD0ibTI2MC44NDU2NzI2IDExNS4wMTQzMjA0IDg5LjYyNTM2NjIgMjIxLjIwNTEwODYtMTM1LjM3NzUxNzctMTA2LjYzNzgwOTd6bTI1MS4xNTQzMjc0IDE0MC45ODU2Nzk2YzAgMTk2LjMzODMxNzktMjE0LjAwNzQ0NjMgMzE5LjcxNTk0MjQtMzg0LjI4ODg3OTQgMjIxLjU0NjgxNHMtMTcwLjI4MTQ5NDEtMzQ0LjkyNDQ5OTUtLjAwMDA2MS00NDMuMDkzNjg5IDM4NC4yODg5NDA0IDI1LjIwODU1NzEgMzg0LjI4ODk0MDQgMjIxLjU0Njg3NXptLTkxLjkzNjY0NTUgMTMxLjE3NjU3NDctMTM3Ljg2MTk2OS0zMzEuNzc0MjY5MWMtNy4yMzQ2ODAyLTE5LjYyNjQ0OTYtMzUuOTExOTg3My0xOS4yNjM0NTgzLTQzLjMwMTgwMzYgMGwtMTUxLjMxMjc3NDYgMzYzLjkxNDgwMjZoNTEuNzYxNjg4Mmw1OS44OTgzNzY1LTE1MC4wNDMyMTI5IDE3OC43NTAxNjc4IDE0NC40MDg3MjE5YzIxLjg4OTI4MjIgMjAuNjUzNzQ3NSA1My4wMDU1NTQyLS4wOTAzOTMxIDQyLjA2NjMxNDctMjYuNTA2MDQyNXoiLz48L3N2Zz4=;" parent="1" vertex="1">
                    <mxGeometry x="80" y="280" width="40" height="40" as="geometry"/>
                </mxCell>
                <mxCell id="8" value="" style="sketch=0;aspect=fixed;html=1;points=[];align=center;image;fontSize=12;image=img/lib/mscae/Virtual_Machine.svg;" parent="1" vertex="1">
                    <mxGeometry x="560" y="40" width="50" height="46" as="geometry"/>
                </mxCell>
                <mxCell id="10" style="edgeStyle=none;html=1;exitX=0;exitY=0.25;exitDx=0;exitDy=0;entryX=0.998;entryY=0.263;entryDx=0;entryDy=0;entryPerimeter=0;strokeColor=#001DBC;fillColor=#0050ef;startArrow=classic;startFill=1;endArrow=none;endFill=0;" parent="1" target="4" edge="1">
                    <mxGeometry relative="1" as="geometry">
                        <mxPoint x="560" y="52.5" as="sourcePoint"/>
                    </mxGeometry>
                </mxCell>
                <mxCell id="12" value="&lt;font color=&quot;#000000&quot;&gt;workspase:&lt;br&gt;&lt;div style=&quot;text-align: left;&quot;&gt;&lt;span style=&quot;background-color: initial;&quot;&gt;admin&lt;/span&gt;&lt;/div&gt;&lt;div style=&quot;text-align: left;&quot;&gt;&lt;span style=&quot;background-color: initial;&quot;&gt;prod&lt;/span&gt;&lt;/div&gt;&lt;div style=&quot;text-align: left;&quot;&gt;&lt;span style=&quot;background-color: initial;&quot;&gt;dev&lt;/span&gt;&lt;/div&gt;&lt;/font&gt;" style="text;html=1;align=center;verticalAlign=middle;resizable=0;points=[];autosize=1;strokeColor=none;fillColor=none;" parent="1" vertex="1">
                    <mxGeometry x="130" y="330" width="80" height="70" as="geometry"/>
                </mxCell>
                <mxCell id="13" value="&lt;font color=&quot;#000000&quot;&gt;folder:&lt;br&gt;&lt;div style=&quot;text-align: left;&quot;&gt;&lt;span style=&quot;background-color: initial;&quot;&gt;admin&lt;/span&gt;&lt;/div&gt;&lt;div style=&quot;text-align: left;&quot;&gt;&lt;span style=&quot;background-color: initial;&quot;&gt;prod&lt;/span&gt;&lt;/div&gt;&lt;div style=&quot;text-align: left;&quot;&gt;&lt;span style=&quot;background-color: initial;&quot;&gt;dev&lt;/span&gt;&lt;/div&gt;&lt;/font&gt;" style="text;html=1;align=center;verticalAlign=middle;resizable=0;points=[];autosize=1;strokeColor=none;fillColor=none;" parent="1" vertex="1">
                    <mxGeometry x="405" y="190" width="60" height="70" as="geometry"/>
                </mxCell>
            </root>
        </mxGraphModel>
    </diagram>
</mxfile>